<svg height="60" viewBox="0 0 60 60" width="60" xmlns="http://www.w3.org/2000/svg"><g fill="none" fill-rule="evenodd"><path d="m.22458069 30c0-16.5685433 13.23036031-30 29.55083861-30s29.5508386 13.4314567 29.5508386 30-13.2303603 30-29.5508386 30-29.55083861-13.4314567-29.55083861-30zm0 0" fill="#e24628"/><path d="m19.5397024 44.0008789 10.4443233 2.9991211 10.4718535-3.0036328 2.331006-26.9963672h-25.5737704zm5.931065-18.1699805.2918431 3.3911133h11.6682856l-.8792113 10.1663086-6.5522513 1.8801563-6.5732671-1.8801563-.4483575-5.2005469h3.2145224l.2280025 2.6435157 3.5648248.9936328 3.5746813-.9981446.3701853-4.293457h-11.0953622l-.8636335-10.0136719h16.0370951l-.2863484 3.31125zm0 0" fill="#fff"/><path d="m59.3262579 30c0 16.5685433-13.2303603 30-29.5508386 30-6.0528788 0-11.6807142-1.8474866-16.3660949-5.0172246l33.8602214-49.16336437c7.311898 5.46123927 12.0567121 14.25838627 12.0567121 24.18058897zm0 0" fill="#000" fill-opacity=".08"/></g></svg>